<svg width="28" height="35" viewBox="0 0 28 35" fill="none" xmlns="http://www.w3.org/2000/svg">
<ellipse opacity="0.35" cx="13.8258" cy="32.8858" rx="2.8258" ry="1.25591" fill="#424941"/>
<circle cx="13.815" cy="13.815" r="13.5094" fill="white" stroke="#424941" stroke-width="0.611111"/>
<g opacity="0.6">
<path d="M9.99497 8.54688C9.84996 8.54688 9.7121 8.60983 9.61713 8.71941L5.65137 13.2953H10.2415L13.8819 8.54688H9.99497Z" fill="#F2F2E4"/>
<path d="M22.1125 13.2953L18.1468 8.71941C18.0518 8.60983 17.9139 8.54688 17.7689 8.54688H13.8819L17.3641 13.2953H22.1125Z" fill="#F2F2E4"/>
<path d="M13.8819 22.0007L22.1125 13.2953H17.3641L13.8819 22.0007Z" fill="#C1C4B6"/>
<path d="M5.65137 13.2953L13.8819 22.0007L10.2415 13.2953H5.65137Z" fill="#C1C4B6"/>
<path d="M22.1125 13.2953L18.1468 8.71941C18.0518 8.60983 17.9139 8.54688 17.7689 8.54688H13.8819M22.1125 13.2953L13.8819 22.0007M22.1125 13.2953H5.65137M22.1125 13.2953H17.3641M13.8819 22.0007L5.65137 13.2953M13.8819 22.0007L10.2415 13.2953M13.8819 22.0007L17.3641 13.2953M5.65137 13.2953L9.61713 8.71941C9.7121 8.60983 9.84996 8.54688 9.99497 8.54688H13.8819M5.65137 13.2953H10.2415M13.8819 8.54688L10.2415 13.2953M13.8819 8.54688L17.3641 13.2953" stroke="black" stroke-width="0.5" stroke-linejoin="round"/>
</g>
<g style="mix-blend-mode:saturation">
<path d="M27.63 13.815C27.63 21.4448 21.4448 27.63 13.815 27.63C6.18519 27.63 0 21.4448 0 13.815C0 6.18519 6.18519 0 13.815 0C21.4448 0 27.63 6.18519 27.63 13.815Z" fill="#D9D9D9"/>
</g>
</svg>
