<svg width="29" height="34" viewBox="0 0 29 34" fill="none" xmlns="http://www.w3.org/2000/svg">
<ellipse opacity="0.35" cx="14.3258" cy="32.5157" rx="2.8258" ry="1.25591" fill="#424941"/>
<circle cx="14.315" cy="13.815" r="13.565" fill="#CFE6D4" stroke="#424941" stroke-width="0.5"/>
<path d="M14.3819 8.54688L10.7415 13.2953H17.8641L14.3819 8.54688Z" fill="#89C9C4"/>
<path d="M10.7415 13.2953L14.3819 22.0007L17.8641 13.2953H10.7415Z" fill="#89C9C4"/>
<path d="M6.15137 13.2953L14.3819 22.0007L10.7415 13.2953H6.15137Z" fill="#33797A"/>
<path d="M14.3819 22.0007L22.6125 13.2953H17.8641L14.3819 22.0007Z" fill="#33797A"/>
<path d="M22.6125 13.2953L18.6468 8.71941C18.5518 8.60983 18.4139 8.54688 18.2689 8.54688H14.3819L17.8641 13.2953H22.6125Z" fill="#63ADA8"/>
<path d="M10.495 8.54688C10.35 8.54688 10.2121 8.60983 10.1171 8.71941L6.15137 13.2953H10.7415L14.3819 8.54688H10.495Z" fill="#63ADA8"/>
<path d="M22.6125 13.2953L18.6468 8.71941C18.5518 8.60983 18.4139 8.54688 18.2689 8.54688H14.3819M22.6125 13.2953L14.3819 22.0007M22.6125 13.2953H6.15137M22.6125 13.2953H17.8641M14.3819 22.0007L6.15137 13.2953M14.3819 22.0007L10.7415 13.2953M14.3819 22.0007L17.8641 13.2953M6.15137 13.2953L10.1171 8.71941C10.2121 8.60983 10.35 8.54688 10.495 8.54688H14.3819M6.15137 13.2953H10.7415M14.3819 8.54688L10.7415 13.2953M14.3819 8.54688L17.8641 13.2953M10.7415 13.2953H17.8641" stroke="black" stroke-width="0.5" stroke-linejoin="round"/>
</svg>
