<svg width="138" height="200" viewBox="0 0 138 200" fill="none" xmlns="http://www.w3.org/2000/svg">
<path d="M10.866 59.9402C8.58124 78.0107 18.5685 89.452 23.3285 92.9137L102.257 94.9908C106.238 94.9908 115.135 93.0176 118.874 85.1247C122.612 77.2319 120.432 62.1038 118.874 55.5264L102.257 30.0823C102.257 30.0823 76.2938 0.743681 69.024 2.04184C61.7543 3.34001 52.1478 15.0236 43.0606 21.774C33.9734 28.5245 13.1508 41.8697 10.866 59.9402Z" fill="#9A9A9A"/>
<path d="M32.156 92.9137H23.3285M23.3285 92.9137C18.5685 89.452 8.58124 78.0107 10.866 59.9402C13.1508 41.8697 33.9734 28.5245 43.0606 21.774C52.1478 15.0236 61.7543 3.34001 69.024 2.04184C76.2938 0.743681 102.257 30.0823 102.257 30.0823L118.874 55.5264C120.432 62.1038 122.612 77.2319 118.874 85.1247C115.135 93.0176 106.238 94.9908 102.257 94.9908L23.3285 92.9137Z" stroke="black" stroke-width="2.07707"/>
<path d="M9.56791 64.8733C8.73708 75.6741 17.53 87.2018 22.0303 91.6156C41.5894 92.7407 81.6423 95.0428 85.381 95.2505C90.0545 95.5101 108.748 94.9908 113.681 91.6156C118.614 88.2403 124.586 67.21 118.874 57.0843C114.304 48.9837 107.623 39.083 105.113 35.275C96.6318 31.2074 77.0727 23.955 61.4947 26.4475C45.9167 28.9399 27.4827 36.6597 20.2129 40.2081C17.0108 43.9295 10.3987 54.0725 9.56791 64.8733Z" fill="#313131"/>
<path d="M32.156 92.9137H23.3285M23.3285 92.9137C18.5685 89.452 8.58124 78.0107 10.866 59.9402C13.1508 41.8697 33.9734 28.5245 43.0606 21.774C52.1478 15.0236 61.7543 3.34001 69.024 2.04184C76.2938 0.743681 102.257 30.0823 102.257 30.0823L118.874 55.5264C120.432 62.1038 122.612 77.2319 118.874 85.1247C115.135 93.0176 106.238 94.9908 102.257 94.9908L23.3285 92.9137Z" stroke="black" stroke-width="2.07707"/>
<path d="M67.4663 20.7354C57.4963 20.32 42.1952 25.0627 36.3102 27.7455C39.772 23.851 49.8631 15.6985 59.4176 15.2831C71.3608 14.7638 82.525 17.1006 89.5351 20.9951C96.5453 24.8896 103.296 31.8997 103.296 31.8997C103.296 31.8997 79.9287 21.2547 67.4663 20.7354Z" fill="#696969"/>
<path d="M32.156 92.9137H23.3285M23.3285 92.9137C18.5685 89.452 8.58124 78.0107 10.866 59.9402C13.1508 41.8697 33.9734 28.5245 43.0606 21.774C52.1478 15.0236 61.7543 3.34001 69.024 2.04184C76.2938 0.743681 102.257 30.0823 102.257 30.0823L118.874 55.5264C120.432 62.1038 122.612 77.2319 118.874 85.1247C115.135 93.0176 106.238 94.9908 102.257 94.9908L23.3285 92.9137Z" stroke="black" stroke-width="2.07707"/>
<path d="M43.5799 114.723L19.9533 127.705C19.9531 113.23 19.3767 105.343 16.8376 91.8752L43.5799 93.6927C49.2919 95.1639 63.416 107.298 71.1012 106.674C78.7863 106.051 91.7853 96.289 96.8049 94.7312L119.393 99.6643L117.835 127.705L93.4297 116.8C94.6413 119.743 97.3242 127.185 98.3627 133.417C99.6609 141.206 98.6224 139.129 99.4013 153.149C100.024 164.365 110.912 179.978 116.277 186.382C107.796 190.45 86.7311 198.637 70.3222 198.844C53.9134 199.052 29.5597 195.123 19.434 193.132C19.0013 193.479 19.6936 191.419 25.9248 180.41C33.7139 166.65 36.3102 139.908 36.8295 132.378C37.2449 126.355 41.5029 118.098 43.5799 114.723Z" fill="#9A9A9A" stroke="black" stroke-width="2.07707"/>
<path d="M66.4721 20.2692C45.6583 19.2333 24.1075 35.7943 18.3955 43.3237C26.9634 36.8328 46.4993 28.9707 66.4721 28.5563C86.4449 28.142 101.074 33.2178 105.892 35.8075C101.425 31.0597 87.2859 21.3051 66.4721 20.2692Z" fill="#FAF6B3" stroke="black" stroke-width="2.07707"/>
<path d="M44.0993 93.1734C39.3908 91.4411 33.7139 87.9807 33.7139 87.9807V96.0293C28.4347 90.577 18.2397 76.7126 19.6936 64.8733C24 29.8075 58.9604 21.1523 89.7948 30.6016C99.9206 33.7046 124.484 58.185 121.211 62.2769C120.251 63.4764 117.283 62.9442 114.695 62.4803C112.803 62.1409 111.114 61.8381 110.566 62.2769C109.267 63.3154 116.226 77.128 121.211 79.4128C124.139 80.7548 120.761 81.0577 117.001 81.3949C114.359 81.6318 111.53 81.8856 110.566 82.5284C108.229 84.0862 110.759 89.4461 114.46 94.9908C114.46 94.9908 103.283 91.2879 92.5143 91.0965C98.5201 87.2892 103.28 82.12 105.633 75.7779C110.41 62.9001 102.257 43.8429 94.7279 38.131C89.8843 34.4565 91.1649 38.303 92.3493 41.8603C93.006 43.8329 93.6332 45.7165 93.1701 46.1796C92.5969 46.7528 89.9992 45.1496 87.0977 43.3589C83.4275 41.0938 79.2713 38.5288 78.1113 39.6888C76.9069 40.8932 78.758 43.6691 80.1717 45.7889C81.1959 47.3248 81.9905 48.5163 81.2269 48.5163C80.4315 48.5163 77.4974 46.2782 74.3403 43.87C70.284 40.7759 65.8596 37.401 65.1296 38.131C64.4542 38.8064 64.833 40.9576 65.169 42.8661C65.4788 44.626 65.7524 46.1796 65.1296 46.1796C64.6114 46.1796 61.9417 44.0696 58.8383 41.6166C54.1675 37.9249 48.5141 33.4565 47.7341 34.2365C47.1797 34.7908 48.6614 37.0498 50.3593 39.6384C52.6371 43.1113 55.3042 47.1775 53.9653 48.5163C51.6286 50.853 37.3488 41.5062 37.3488 41.5062C36.4833 43.8429 34.4928 52.4628 33.4543 68.2485C32.7106 79.5525 37.2891 88.2665 44.0993 93.1734Z" fill="#9C7857"/>
<path d="M79.584 44.9003L79.5242 44.8814C79.5125 44.8465 79.4984 44.8003 79.4821 44.743M33.7139 87.9807C33.7139 87.9807 39.3908 91.4411 44.0993 93.1734C37.2891 88.2665 32.7106 79.5525 33.4543 68.2485C34.4928 52.4628 36.4833 43.8429 37.3488 41.5062C37.3488 41.5062 51.6286 50.853 53.9653 48.5163C55.3042 47.1775 52.6371 43.1113 50.3593 39.6384C48.6614 37.0498 47.1797 34.7908 47.7341 34.2365C48.5141 33.4565 54.1675 37.9249 58.8383 41.6166C61.9417 44.0696 64.6114 46.1796 65.1296 46.1796C65.7524 46.1796 65.4788 44.626 65.169 42.8661C64.833 40.9576 64.4542 38.8064 65.1296 38.131C65.8596 37.401 70.284 40.7759 74.3403 43.87C77.4974 46.2782 80.4315 48.5163 81.2269 48.5163C81.9905 48.5163 81.1959 47.3248 80.1717 45.7889C78.758 43.6691 76.9069 40.8932 78.1113 39.6888C79.2713 38.5288 83.4275 41.0938 87.0977 43.3589C89.9992 45.1496 92.5969 46.7528 93.1701 46.1796C93.6332 45.7165 93.006 43.8329 92.3493 41.8603C91.1649 38.303 89.8843 34.4565 94.7279 38.131C102.257 43.8429 110.41 62.9001 105.633 75.7779C103.28 82.12 98.5201 87.2892 92.5143 91.0965C103.283 91.2879 114.46 94.9908 114.46 94.9908C110.759 89.4461 108.229 84.0862 110.566 82.5284C111.53 81.8856 114.359 81.6318 117.001 81.3949C120.761 81.0577 124.139 80.7548 121.211 79.4128C116.226 77.128 109.267 63.3154 110.566 62.2769C111.114 61.8381 112.803 62.1409 114.695 62.4803C117.283 62.9442 120.251 63.4764 121.211 62.2769C124.484 58.185 99.9206 33.7046 89.7948 30.6016C58.9604 21.1523 24 29.8075 19.6936 64.8733C18.2397 76.7126 28.4347 90.577 33.7139 96.0293V87.9807Z" stroke="black" stroke-width="2.07707"/>
<path d="M41.7625 126.926C43.0087 122.356 44.1857 115.675 45.3974 112.906C42.2818 115.926 37.3537 125.363 36.8294 133.676C36.2428 142.979 33.7138 157.822 30.8579 167.948C28.5731 176.049 22.463 187.94 19.6936 192.873L25.1459 194.171C29.3001 187.42 36.5698 168.986 38.9065 158.861C41.2432 148.735 40.2047 132.638 41.7625 126.926Z" fill="#696969"/>
<path d="M43.5799 114.723L19.9533 127.705C19.9531 113.23 19.3767 105.343 16.8376 91.8752L43.5799 93.6927C49.2919 95.1639 63.416 107.298 71.1012 106.674C78.7863 106.051 91.7853 96.289 96.8049 94.7312L119.393 99.6643L117.835 127.705L93.4297 116.8C94.6413 119.743 97.3242 127.185 98.3627 133.417C99.6609 141.206 98.6224 139.129 99.4013 153.149C100.024 164.365 110.912 179.978 116.277 186.382C107.796 190.45 86.7311 198.637 70.3222 198.844C53.9134 199.052 29.5597 195.123 19.434 193.132C19.0013 193.479 19.6936 191.419 25.9248 180.41C33.7139 166.65 36.3102 139.908 36.8295 132.378C37.2449 126.355 41.5029 118.098 43.5799 114.723Z" stroke="black" stroke-width="2.07707"/>
<path d="M65.8203 105.283C58.2548 103.243 54.5127 100.895 49.5276 95.328C49.2306 94.9963 49.4664 94.4716 49.9116 94.4716H94.1215C94.6014 94.4716 94.8207 95.0676 94.4562 95.3797C87.8366 101.046 83.7674 103.402 76.9836 105.26C76.7372 105.327 76.5734 105.568 76.5995 105.822C78.1946 121.321 78.2744 129.523 76.6239 142.226C76.586 142.518 76.7999 142.787 77.0929 142.813C85.897 143.58 90.624 142.091 98.1086 137.997C98.456 137.807 98.882 138.058 98.882 138.454V150.225C98.882 150.425 98.7644 150.609 98.5838 150.695C90.5526 154.5 85.7007 155.208 77.3063 154.512C76.9435 154.482 76.6604 154.826 76.7568 155.177C80.1273 167.454 80.0595 176.539 81.7025 197.005C81.726 197.298 81.5039 197.558 81.2113 197.573L66.7451 198.296C66.4369 198.312 66.1835 198.053 66.2007 197.745C66.949 184.335 67.0566 175.231 66.1908 154.975C66.1785 154.688 65.9285 154.459 65.641 154.472C51.1468 155.138 44.7073 154.197 36.3684 150.687C36.1766 150.606 36.0505 150.417 36.0505 150.209V138.371C36.0505 137.995 36.441 137.745 36.7855 137.896C47.1118 142.425 53.6107 143.458 65.726 142.789C65.9789 142.775 66.1889 142.575 66.2164 142.324C67.7228 128.534 67.7762 120.398 66.2067 105.735C66.1838 105.521 66.0279 105.339 65.8203 105.283Z" fill="#FAF6B3" stroke="black" stroke-width="1.5578"/>
<path d="M40.7241 139.388L36.9074 138.68C35.7933 142.504 36.0753 145.103 35.0121 149.774L39.9452 151.331C40.4712 147.697 40.2059 144.841 40.7241 139.388Z" fill="#D9D59B"/>
<path d="M65.8204 105.283C58.2549 103.243 54.5128 100.895 49.5277 95.328C49.2307 94.9963 49.4665 94.4716 49.9117 94.4716H94.1216C94.6014 94.4716 94.8208 95.0676 94.4563 95.3797C87.8367 101.046 83.7675 103.402 76.9837 105.26C76.7373 105.327 76.5735 105.568 76.5996 105.822C78.1947 121.321 78.2745 129.523 76.624 142.226C76.5861 142.518 76.8 142.787 77.093 142.813C85.897 143.58 90.6241 142.091 98.1087 137.997C98.4561 137.807 98.8821 138.058 98.8821 138.454V150.225C98.8821 150.425 98.7645 150.609 98.5839 150.695C90.5527 154.5 85.7008 155.208 77.3064 154.512C76.9436 154.482 76.6605 154.826 76.7569 155.177C80.1274 167.454 80.0596 176.539 81.7026 197.005C81.7261 197.298 81.504 197.558 81.2113 197.573L66.7452 198.296C66.437 198.312 66.1836 198.053 66.2008 197.745C66.949 184.335 67.0567 175.231 66.1909 154.975C66.1786 154.688 65.9291 154.459 65.6416 154.472C51.1461 155.126 43.9643 153.694 35.619 150.18C35.4124 150.093 35.2846 149.882 35.3036 149.659L36.2483 138.559C36.2786 138.202 36.6545 137.984 36.9818 138.128C47.3345 142.67 53.592 143.466 65.7259 142.789C65.9788 142.775 66.189 142.575 66.2165 142.324C67.7229 128.534 67.7763 120.398 66.2068 105.735C66.1839 105.521 66.028 105.339 65.8204 105.283Z" stroke="black" stroke-width="1.5578"/>
<path d="M37.3487 41.5062C36.4833 43.8429 34.4927 52.4627 33.4542 68.2485C30.743 109.459 94.6089 105.494 105.632 75.7779C110.41 62.9 102.257 43.8429 94.7278 38.1309C87.1984 32.419 94.4682 44.8814 93.17 46.1796C91.8718 47.4778 80.1883 37.6117 78.1113 39.6887C76.0342 41.7658 83.0443 48.5163 81.2269 48.5163C79.4094 48.5163 66.4277 36.8327 65.1296 38.1309C63.8314 39.4291 66.4277 46.1796 65.1296 46.1796C63.8314 46.1796 49.0322 32.9383 47.7341 34.2364C46.4359 35.5346 56.302 46.1796 53.9653 48.5163C51.6286 50.853 37.3487 41.5062 37.3487 41.5062Z" fill="#F9D9BC" stroke="black" stroke-width="2.07707"/>
<path d="M67.4663 75.736C68.3623 74.2328 70.4903 72.1757 73.1783 75.2613" stroke="black" stroke-width="1.03854" stroke-linecap="round"/>
<path d="M81.6912 81.4061H58.8434C59.8819 86.5988 62.4783 90.2336 70.3956 90.2336C76.7582 90.2336 80.9123 87.1181 81.6912 81.4061Z" fill="#D88484"/>
<path d="M80.9123 83.7428H59.6223L58.5837 81.1465H81.9508L80.9123 83.7428Z" fill="white"/>
<path d="M84.0829 55.6812C84.9674 55.3953 87.4442 54.1482 89.7402 56.6014" stroke="black" stroke-width="1.03854" stroke-linecap="round"/>
<path d="M50.1795 57.3175C50.7928 56.6189 52.2812 54.2791 55.5097 55.2101" stroke="black" stroke-width="1.03854" stroke-linecap="round"/>
<path d="M55.2223 66.1897C55.1973 63.482 60.1628 59.6486 63.0526 64.9877" stroke="black" stroke-width="1.5578" stroke-linecap="round"/>
<path d="M77.8961 65.0486C78.5008 62.517 84.0216 60.0929 85.479 65.7434" stroke="black" stroke-width="1.5578" stroke-linecap="round"/>
<ellipse cx="48.513" cy="74.1782" rx="5.45231" ry="3.11561" fill="#EAB98D"/>
<ellipse cx="94.2087" cy="73.6589" rx="5.45231" ry="3.11561" fill="#EAB98D"/>
<path d="M81.6912 80.8868H58.8434C59.8819 86.385 62.4783 90.2336 70.3956 90.2336C76.7582 90.2336 80.9123 86.9348 81.6912 80.8868Z" stroke="black" stroke-width="1.03854" stroke-linejoin="round"/>
<path d="M41.2434 45.141L37.8681 43.064C37.3489 43.064 36.7085 47.1545 34.7525 62.0172C32.4001 79.893 37.943 94.4621 59.6774 97.5871C66.3076 98.5404 72.2264 97.3275 74.2169 96.8082C69.7098 97.1873 59.3127 96.1829 55.004 94.4715C41.4864 89.1025 37.0892 82.3193 37.0892 69.0274C37.0892 61.3422 40.1183 48.949 41.2434 45.141Z" fill="#D1AC8B"/>
<path d="M118.703 130.378C117.537 118.781 117.569 110.847 118.659 95.6908C118.705 95.053 119.313 94.6062 119.936 94.7492C124.286 95.7474 127.076 96.172 131.193 96.4753C131.772 96.5179 132.208 97.0287 132.163 97.6076C130.932 113.195 131.916 121.357 136.234 133.286C136.454 133.896 136.074 134.561 135.435 134.668C129.007 135.741 125.09 135.675 119.1 131.093C118.876 130.922 118.731 130.659 118.703 130.378Z" fill="#FAF6B3" stroke="black" stroke-width="2.07707"/>
<path d="M19.7128 131.848C20.2759 115.989 19.5946 106.608 16.986 90.206C16.9026 89.6817 16.4356 89.3015 15.9051 89.321C11.885 89.4684 9.19775 89.084 5.32088 87.6268C4.56122 87.3413 3.7571 87.9733 3.87321 88.7765C6.61392 107.737 4.35734 118.657 1.20404 137.149C1.09698 137.777 1.57655 138.359 2.21345 138.354C8.88276 138.304 12.8744 136.946 19.2552 132.674C19.53 132.49 19.7011 132.178 19.7128 131.848Z" fill="#FAF6B3" stroke="black" stroke-width="2.07707"/>
<path d="M8.01012 88.5L4.37524 87.4614C5.69264 106.919 5.03705 117.834 1 137.311L6.45231 138.35C9.72907 119.575 10.6065 106.415 8.01012 88.5Z" fill="#D9D59B"/>
<path d="M19.7128 131.848C20.2759 115.989 19.5946 106.608 16.986 90.206C16.9026 89.6817 16.4356 89.3015 15.9051 89.321C11.885 89.4684 9.19775 89.084 5.32088 87.6268C4.56122 87.3413 3.7571 87.9733 3.87321 88.7765C6.61392 107.737 4.35734 118.657 1.20404 137.149C1.09698 137.777 1.57655 138.359 2.21345 138.354C8.88276 138.304 12.8744 136.946 19.2552 132.674C19.53 132.49 19.7011 132.178 19.7128 131.848Z" stroke="black" stroke-width="2.07707"/>
</svg>
