<svg xmlns="http://www.w3.org/2000/svg" width="27" height="27" viewBox="0 0 27 27" fill="none">
  <path d="M19.4062 3.375H7.59375C7.1462 3.375 6.71697 3.55279 6.40051 3.86926C6.08404 4.18572 5.90625 4.61495 5.90625 5.0625V23.625C5.90632 23.7756 5.94669 23.9234 6.02317 24.0531C6.09965 24.1828 6.20944 24.2897 6.34116 24.3627C6.47288 24.4356 6.62173 24.472 6.77225 24.468C6.92278 24.4641 7.0695 24.4199 7.19719 24.3401L13.5 20.4008L19.8039 24.3401C19.9315 24.4196 20.0781 24.4636 20.2285 24.4674C20.3789 24.4712 20.5275 24.4348 20.6591 24.3619C20.7906 24.2889 20.9003 24.1822 20.9767 24.0526C21.0532 23.923 21.0936 23.7754 21.0938 23.625V5.0625C21.0938 4.61495 20.916 4.18572 20.5995 3.86926C20.283 3.55279 19.8538 3.375 19.4062 3.375ZM19.4062 22.1031L13.9461 18.6912C13.812 18.6074 13.6571 18.5629 13.4989 18.5629C13.3408 18.5629 13.1859 18.6074 13.0518 18.6912L7.59375 22.1031V5.0625H19.4062V22.1031Z" fill="#424941"/>
</svg>