<svg width="28" height="35" viewBox="0 0 28 35" fill="none" xmlns="http://www.w3.org/2000/svg">
<ellipse opacity="0.35" cx="13.8258" cy="32.8858" rx="2.8258" ry="1.25591" fill="#424941"/>
<circle cx="13.815" cy="13.815" r="13.315" fill="#E5E3DF" stroke="#424941"/>
<g opacity="0.5">
<path d="M13.8819 8.54688L10.2415 13.2953H17.3641L13.8819 8.54688Z" fill="#89C9C4"/>
<path d="M10.2415 13.2953L13.8819 22.0007L17.3641 13.2953H10.2415Z" fill="#89C9C4"/>
<path d="M5.65137 13.2953L13.8819 22.0007L10.2415 13.2953H5.65137Z" fill="#33797A"/>
<path d="M13.8819 22.0007L22.1125 13.2953H17.3641L13.8819 22.0007Z" fill="#33797A"/>
<path d="M22.1125 13.2953L18.1468 8.71941C18.0518 8.60983 17.9139 8.54688 17.7689 8.54688H13.8819L17.3641 13.2953H22.1125Z" fill="#63ADA8"/>
<path d="M9.99497 8.54688C9.84996 8.54688 9.7121 8.60983 9.61713 8.71941L5.65137 13.2953H10.2415L13.8819 8.54688H9.99497Z" fill="#63ADA8"/>
<path d="M22.1125 13.2953L18.1468 8.71941C18.0518 8.60983 17.9139 8.54688 17.7689 8.54688H13.8819M22.1125 13.2953L13.8819 22.0007M22.1125 13.2953H5.65137M22.1125 13.2953H17.3641M13.8819 22.0007L5.65137 13.2953M13.8819 22.0007L10.2415 13.2953M13.8819 22.0007L17.3641 13.2953M5.65137 13.2953L9.61713 8.71941C9.7121 8.60983 9.84996 8.54688 9.99497 8.54688H13.8819M5.65137 13.2953H10.2415M13.8819 8.54688L10.2415 13.2953M13.8819 8.54688L17.3641 13.2953M10.2415 13.2953H17.3641" stroke="black" stroke-width="0.5" stroke-linejoin="round"/>
</g>
</svg>
