<svg xmlns="http://www.w3.org/2000/svg" width="10" height="11" viewBox="0 0 10 11" fill="none">
  <path d="M5 1.86328C4.19652 1.86328 3.41107 2.10154 2.743 2.54794C2.07492 2.99433 1.55422 3.6288 1.24674 4.37113C0.93926 5.11345 0.858809 5.93029 1.01556 6.71834C1.17231 7.50638 1.55923 8.23025 2.12738 8.7984C2.69553 9.36655 3.4194 9.75347 4.20745 9.91022C4.9955 10.067 5.81233 9.98652 6.55465 9.67904C7.29698 9.37156 7.93145 8.85086 8.37785 8.18279C8.82424 7.51471 9.0625 6.72927 9.0625 5.92578C9.06136 4.84869 8.63299 3.81604 7.87137 3.05442C7.10975 2.2928 6.07709 1.86442 5 1.86328ZM5 9.36328C4.32013 9.36328 3.65552 9.16168 3.09023 8.78396C2.52494 8.40624 2.08434 7.86938 1.82417 7.24126C1.56399 6.61313 1.49592 5.92197 1.62855 5.25516C1.76119 4.58835 2.08858 3.97584 2.56932 3.4951C3.05007 3.01436 3.66257 2.68697 4.32938 2.55433C4.99619 2.4217 5.68736 2.48977 6.31548 2.74995C6.9436 3.01012 7.48046 3.45071 7.85818 4.01601C8.2359 4.5813 8.4375 5.24591 8.4375 5.92578C8.43647 6.83715 8.07397 7.71089 7.42954 8.35532C6.78511 8.99975 5.91137 9.36225 5 9.36328ZM7.5 5.92578C7.5 6.00866 7.46708 6.08815 7.40847 6.14675C7.34987 6.20536 7.27038 6.23828 7.1875 6.23828H5C4.91712 6.23828 4.83764 6.20536 4.77903 6.14675C4.72043 6.08815 4.6875 6.00866 4.6875 5.92578V3.73828C4.6875 3.6554 4.72043 3.57592 4.77903 3.51731C4.83764 3.45871 4.91712 3.42578 5 3.42578C5.08288 3.42578 5.16237 3.45871 5.22097 3.51731C5.27958 3.57592 5.3125 3.6554 5.3125 3.73828V5.61328H7.1875C7.27038 5.61328 7.34987 5.64621 7.40847 5.70481C7.46708 5.76342 7.5 5.8429 7.5 5.92578Z" fill="#424941"/>
</svg>