<svg width="28" height="34" viewBox="0 0 28 34" fill="none" xmlns="http://www.w3.org/2000/svg">
<circle cx="13.815" cy="13.815" r="13.315" fill="#E5E3DF" stroke="#424941"/>
<g opacity="0.6">
<path d="M3.17561 14.4256C2.73353 17.9221 4.66596 20.1358 5.58696 20.8057L20.8588 21.2076C21.6291 21.2076 23.3505 20.8258 24.0739 19.2986C24.7973 17.7714 24.3754 14.8443 24.0739 13.5716L20.8588 8.64847C20.8588 8.64847 15.8352 2.97176 14.4286 3.22294C13.0219 3.47412 11.1632 5.73476 9.40492 7.0409C7.64665 8.34705 3.61769 10.9292 3.17561 14.4256Z" fill="#9A9A9A"/>
<path d="M2.92421 15.4755C2.76352 17.5945 4.46409 19.8561 5.33447 20.7221C8.84656 22.8776 19.3262 23.3135 23.0599 20.7221C24.014 20.0599 25.1689 15.934 24.0642 13.9474C23.1804 12.3582 21.8883 10.4158 21.4029 9.66871C19.7626 8.87069 15.9798 7.44785 12.967 7.93684C9.95414 8.42584 6.38896 9.94037 4.98297 10.6365C4.36367 11.3666 3.08489 13.3566 2.92421 15.4755Z" fill="#313131"/>
<path d="M14.0593 6.85783C12.1003 6.77279 9.09384 7.7436 7.9375 8.29278C8.6177 7.49558 10.6005 5.82678 12.4779 5.74175C14.8246 5.63546 17.0182 6.11378 18.3956 6.91097C19.773 7.70817 21.0994 9.14312 21.0994 9.14312C21.0994 9.14312 16.5081 6.96412 14.0593 6.85783Z" fill="#696969"/>
<path d="M3.17952 14.3256C2.73744 17.822 4.66987 20.0358 5.59087 20.7056C8.34378 22.8485 21.8348 23.9338 24.0778 19.1985C24.8013 17.6713 24.3793 14.7442 24.0778 13.4715L20.8627 8.54837C20.8627 8.54837 15.8391 2.87166 14.4325 3.12284C13.0258 3.37402 11.1671 5.63466 9.40883 6.94081C7.65056 8.24695 3.6216 10.8291 3.17952 14.3256Z" stroke="black" stroke-width="0.5"/>
<path d="M13.9346 6.7502C9.90739 6.54976 5.73752 9.75413 4.63232 11.211C6.29012 9.95508 10.0701 8.43383 13.9346 8.35366C17.7992 8.27349 20.7196 9.24495 21.6518 9.74603C20.7874 8.82738 17.9619 6.95063 13.9346 6.7502Z" fill="#FAF6B3" stroke="black" stroke-width="0.5"/>
<path d="M9.60584 20.856C8.6948 20.5208 7.59638 19.8512 7.59638 19.8512V21.4086C6.57491 20.3536 4.60229 17.671 4.88362 15.3802C5.71684 8.59535 12.4813 6.92067 18.4474 8.749C20.4067 9.3494 25.1594 14.0861 24.526 14.8778C24.3404 15.1099 23.766 15.0069 23.2654 14.9172C22.8992 14.8515 22.5725 14.7929 22.4663 14.8778C22.2152 15.0788 23.5615 17.7513 24.526 18.1934C25.0926 18.4531 24.439 18.5117 23.7115 18.577C23.2004 18.6228 22.6529 18.6719 22.4663 18.7963C22.0142 19.0977 22.5037 20.1348 23.2199 21.2076C23.2199 21.2076 21.0573 20.4911 18.9736 20.4541C20.1357 19.7174 21.0566 18.7173 21.5119 17.4901C22.4362 14.9984 20.8588 11.3111 19.4019 10.2059C18.4647 9.49489 18.7125 10.2391 18.9417 10.9274C19.0688 11.3091 19.1901 11.6736 19.1005 11.7632C18.9896 11.8741 18.487 11.5639 17.9256 11.2174C17.2154 10.7791 16.4112 10.2828 16.1868 10.5073C15.9538 10.7403 16.3119 11.2774 16.5855 11.6876C16.7836 11.9848 16.9374 12.2153 16.7896 12.2153C16.6357 12.2153 16.068 11.7823 15.4571 11.3163C14.6723 10.7176 13.8162 10.0646 13.675 10.2059C13.5443 10.3365 13.6176 10.7528 13.6826 11.1221C13.7426 11.4626 13.7955 11.7632 13.675 11.7632C13.5747 11.7632 13.0582 11.3549 12.4577 10.8803C11.5539 10.166 10.4601 9.30139 10.3091 9.45231C10.2019 9.55957 10.4886 9.99666 10.8171 10.4975C11.2578 11.1695 11.7739 11.9563 11.5148 12.2153C11.0627 12.6674 8.29969 10.8589 8.29969 10.8589C8.13224 11.3111 7.74709 12.9789 7.54614 16.0333C7.40225 18.2205 8.28815 19.9065 9.60584 20.856Z" fill="#9C7857"/>
<path d="M16.4718 11.5157L16.4602 11.512C16.4579 11.5052 16.4552 11.4963 16.452 11.4852M7.59638 19.8512C7.59638 19.8512 8.6948 20.5208 9.60584 20.856C8.28815 19.9065 7.40225 18.2205 7.54614 16.0333C7.74709 12.9789 8.13224 11.3111 8.29969 10.8589C8.29969 10.8589 11.0627 12.6674 11.5148 12.2153C11.7739 11.9563 11.2578 11.1695 10.8171 10.4975C10.4886 9.99666 10.2019 9.55957 10.3091 9.45231C10.4601 9.30139 11.5539 10.166 12.4577 10.8803C13.0582 11.3549 13.5747 11.7632 13.675 11.7632C13.7955 11.7632 13.7426 11.4626 13.6826 11.1221C13.6176 10.7528 13.5443 10.3365 13.675 10.2059C13.8162 10.0646 14.6723 10.7176 15.4571 11.3163C16.068 11.7823 16.6357 12.2153 16.7896 12.2153C16.9374 12.2153 16.7836 11.9848 16.5855 11.6876C16.3119 11.2774 15.9538 10.7403 16.1868 10.5073C16.4112 10.2828 17.2154 10.7791 17.9256 11.2174C18.487 11.5639 18.9896 11.8741 19.1005 11.7632C19.1901 11.6736 19.0688 11.3091 18.9417 10.9274C18.7125 10.2391 18.4647 9.49489 19.4019 10.2059C20.8588 11.3111 22.4362 14.9984 21.5119 17.4901C21.0566 18.7173 20.1357 19.7174 18.9736 20.4541C21.0573 20.4911 23.2199 21.2076 23.2199 21.2076C22.5037 20.1348 22.0142 19.0977 22.4663 18.7963C22.6529 18.6719 23.2004 18.6228 23.7115 18.577C24.439 18.5117 25.0926 18.4531 24.526 18.1934C23.5615 17.7513 22.2152 15.0788 22.4663 14.8778C22.5725 14.7929 22.8992 14.8515 23.2654 14.9172C23.766 15.0069 24.3404 15.1099 24.526 14.8778C25.1594 14.0861 20.4067 9.3494 18.4474 8.749C12.4813 6.92067 5.71684 8.59535 4.88362 15.3802C4.60229 17.671 6.57491 20.3536 7.59638 21.4086V19.8512Z" stroke="black" stroke-width="0.5"/>
<path d="M8.29955 10.859C8.1321 11.3111 7.74695 12.979 7.54601 16.0334C7.02141 24.0072 19.3788 23.2399 21.5117 17.4902C22.4361 14.9985 20.8586 11.3111 19.4018 10.2059C17.9449 9.10073 19.3516 11.5121 19.1004 11.7633C18.8492 12.0144 16.5886 10.1055 16.1867 10.5074C15.7848 10.9092 17.1412 12.2154 16.7895 12.2154C16.4378 12.2154 13.926 9.95475 13.6748 10.2059C13.4237 10.4571 13.926 11.7633 13.6748 11.7633C13.4237 11.7633 10.5602 9.20121 10.309 9.45239C10.0578 9.70357 11.9668 11.7633 11.5147 12.2154C11.0626 12.6675 8.29955 10.859 8.29955 10.859Z" fill="#F9D9BC" stroke="black" stroke-width="0.5"/>
<ellipse cx="11.9165" cy="15.2797" rx="0.904254" ry="0.904254" fill="black"/>
<circle cx="17.3422" cy="15.2797" r="0.904254" fill="black"/>
<ellipse cx="11.6154" cy="14.9787" rx="0.301418" ry="0.301418" fill="white"/>
<circle cx="17.0407" cy="14.9787" r="0.301418" fill="white"/>
<path d="M11.5146 18.3218C12.4029 19.4964 15.806 20.6254 17.744 17.9927" stroke="black" stroke-width="0.5" stroke-linecap="round"/>
<path d="M14.0264 17.5909C14.1997 17.3 14.6115 16.902 15.1316 17.499" stroke="black" stroke-width="0.5" stroke-linecap="round"/>
<path d="M17.2417 13.7102C17.4129 13.6549 17.8921 13.4136 18.3364 13.8882" stroke="black" stroke-width="0.5" stroke-linecap="round"/>
<path d="M10.6816 14.0268C10.8003 13.8916 11.0883 13.4389 11.713 13.619" stroke="black" stroke-width="0.5" stroke-linecap="round"/>
<ellipse cx="10.3592" cy="17.2894" rx="1.05496" ry="0.602836" fill="#EAB98D"/>
<ellipse cx="19.201" cy="17.1888" rx="1.05496" ry="0.602836" fill="#EAB98D"/>
<path d="M9.05305 11.5625L8.39998 11.1606C8.29951 11.1606 8.1756 11.9521 7.79714 14.8279C7.34197 18.2867 8.41446 21.1056 12.6198 21.7103C13.9027 21.8947 15.0479 21.66 15.4331 21.5596C14.561 21.6329 12.5493 21.4386 11.7156 21.1074C9.10007 20.0686 8.24927 18.7561 8.24927 16.1843C8.24927 14.6973 8.83536 12.2993 9.05305 11.5625Z" fill="#D1AC8B"/>
</g>
<ellipse opacity="0.35" cx="13.75" cy="32.482" rx="2.75" ry="1.22222" fill="#424941"/>
</svg>
