<svg width="30" height="34" viewBox="0 0 30 34" fill="none" xmlns="http://www.w3.org/2000/svg">
<circle cx="14.815" cy="13.815" r="13.525" fill="#CFE6D4" stroke="#424941" stroke-width="0.58"/>
<path d="M4.17561 14.4261C3.73353 17.9226 5.66596 20.1363 6.58696 20.8062L21.8588 21.208C22.6291 21.208 24.3505 20.8263 25.0739 19.2991C25.7973 17.7719 25.3754 14.8448 25.0739 13.5721L21.8588 8.64895C21.8588 8.64895 16.8352 2.97225 15.4286 3.22343C14.0219 3.47461 12.1632 5.73525 10.4049 7.04139C8.64665 8.34754 4.61769 10.9297 4.17561 14.4261Z" fill="#9A9A9A"/>
<path d="M3.92421 15.4756C3.76352 17.5945 5.46409 19.8562 6.33447 20.7221C9.84656 22.8776 20.3262 23.3135 24.0599 20.7221C25.014 20.0599 26.1689 15.934 25.0642 13.9474C24.1804 12.3582 22.8883 10.4158 22.4029 9.66871C20.7626 8.87069 16.9798 7.44785 13.967 7.93684C10.9541 8.42584 7.38896 9.94037 5.98297 10.6365C5.36367 11.3666 4.08489 13.3566 3.92421 15.4756Z" fill="#313131"/>
<path d="M15.0593 6.85783C13.1003 6.77279 10.0938 7.7436 8.9375 8.29278C9.6177 7.49558 11.6005 5.82678 13.4779 5.74175C15.8246 5.63546 18.0182 6.11378 19.3956 6.91097C20.773 7.70817 22.0994 9.14312 22.0994 9.14312C22.0994 9.14312 17.5081 6.96412 15.0593 6.85783Z" fill="#696969"/>
<path d="M4.17952 14.3256C3.73744 17.822 5.66987 20.0358 6.59087 20.7056C9.34378 22.8485 22.8348 23.9338 25.0778 19.1985C25.8013 17.6713 25.3793 14.7442 25.0778 13.4715L21.8627 8.54837C21.8627 8.54837 16.8391 2.87166 15.4325 3.12284C14.0258 3.37402 12.1671 5.63466 10.4088 6.94081C8.65056 8.24695 4.6216 10.8291 4.17952 14.3256Z" stroke="black" stroke-width="0.5"/>
<path d="M14.9346 6.7502C10.9074 6.54976 6.73752 9.75413 5.63232 11.211C7.29012 9.95507 11.0701 8.43383 14.9346 8.35366C18.7992 8.27349 21.7196 9.24495 22.6518 9.74603C21.7874 8.82738 18.9619 6.95063 14.9346 6.7502Z" fill="#FAF6B3" stroke="black" stroke-width="0.5"/>
<path d="M10.6058 20.8564C9.6948 20.5213 8.59638 19.8517 8.59638 19.8517V21.409C7.57491 20.3541 5.60229 17.6715 5.88362 15.3807C6.71684 8.59584 13.4813 6.92116 19.4474 8.74948C21.4067 9.34989 26.1594 14.0866 25.526 14.8783C25.3404 15.1104 24.766 15.0074 24.2654 14.9177C23.8992 14.852 23.5725 14.7934 23.4663 14.8783C23.2152 15.0793 24.5615 17.7518 25.526 18.1939C26.0926 18.4536 25.439 18.5122 24.7115 18.5774C24.2004 18.6233 23.6529 18.6724 23.4663 18.7968C23.0142 19.0982 23.5037 20.1353 24.2199 21.2081C24.2199 21.2081 22.0573 20.4916 19.9736 20.4546C21.1357 19.7179 22.0566 18.7177 22.5119 17.4906C23.4362 14.9989 21.8588 11.3115 20.4019 10.2063C19.4647 9.49537 19.7125 10.2396 19.9417 10.9279C20.0688 11.3096 20.1901 11.6741 20.1005 11.7637C19.9896 11.8746 19.487 11.5644 18.9256 11.2179C18.2154 10.7796 17.4112 10.2833 17.1868 10.5078C16.9538 10.7408 17.3119 11.2779 17.5855 11.6881C17.7836 11.9852 17.9374 12.2158 17.7896 12.2158C17.6357 12.2158 17.068 11.7827 16.4571 11.3168C15.6723 10.7181 14.8162 10.0651 14.675 10.2063C14.5443 10.337 14.6176 10.7533 14.6826 11.1225C14.7426 11.4631 14.7955 11.7637 14.675 11.7637C14.5747 11.7637 14.0582 11.3554 13.4577 10.8808C12.5539 10.1665 11.4601 9.30188 11.3091 9.45279C11.2019 9.56006 11.4886 9.99715 11.8171 10.498C12.2578 11.17 12.7739 11.9567 12.5148 12.2158C12.0627 12.6679 9.29969 10.8594 9.29969 10.8594C9.13224 11.3115 8.74709 12.9794 8.54614 16.0338C8.40225 18.221 9.28815 19.907 10.6058 20.8564Z" fill="#9C7857"/>
<path d="M17.4718 11.5161L17.4602 11.5125C17.4579 11.5057 17.4552 11.4968 17.452 11.4857M8.59638 19.8517C8.59638 19.8517 9.6948 20.5213 10.6058 20.8564C9.28815 19.907 8.40225 18.221 8.54614 16.0338C8.74709 12.9794 9.13224 11.3115 9.29969 10.8594C9.29969 10.8594 12.0627 12.6679 12.5148 12.2158C12.7739 11.9567 12.2578 11.17 11.8171 10.498C11.4886 9.99715 11.2019 9.56006 11.3091 9.45279C11.4601 9.30188 12.5539 10.1665 13.4577 10.8808C14.0582 11.3554 14.5747 11.7637 14.675 11.7637C14.7955 11.7637 14.7426 11.4631 14.6826 11.1225C14.6176 10.7533 14.5443 10.337 14.675 10.2063C14.8162 10.0651 15.6723 10.7181 16.4571 11.3168C17.068 11.7827 17.6357 12.2158 17.7896 12.2158C17.9374 12.2158 17.7836 11.9852 17.5855 11.6881C17.3119 11.2779 16.9538 10.7408 17.1868 10.5078C17.4112 10.2833 18.2154 10.7796 18.9256 11.2179C19.487 11.5644 19.9896 11.8746 20.1005 11.7637C20.1901 11.6741 20.0688 11.3096 19.9417 10.9279C19.7125 10.2396 19.4647 9.49537 20.4019 10.2063C21.8588 11.3115 23.4362 14.9989 22.5119 17.4906C22.0566 18.7177 21.1357 19.7179 19.9736 20.4546C22.0573 20.4916 24.2199 21.2081 24.2199 21.2081C23.5037 20.1353 23.0142 19.0982 23.4663 18.7968C23.6529 18.6724 24.2004 18.6233 24.7115 18.5774C25.439 18.5122 26.0926 18.4536 25.526 18.1939C24.5615 17.7518 23.2152 15.0793 23.4663 14.8783C23.5725 14.7934 23.8992 14.852 24.2654 14.9177C24.766 15.0074 25.3404 15.1104 25.526 14.8783C26.1594 14.0866 21.4067 9.34989 19.4474 8.74948C13.4813 6.92116 6.71684 8.59584 5.88362 15.3807C5.60229 17.6715 7.57491 20.3541 8.59638 21.409V19.8517Z" stroke="black" stroke-width="0.5"/>
<path d="M9.29955 10.859C9.1321 11.3111 8.74695 12.979 8.54601 16.0334C8.02141 24.0072 20.3788 23.2399 22.5117 17.4902C23.4361 14.9985 21.8586 11.3111 20.4018 10.2059C18.9449 9.10073 20.3516 11.5121 20.1004 11.7633C19.8492 12.0144 17.5886 10.1055 17.1867 10.5074C16.7848 10.9092 18.1412 12.2154 17.7895 12.2154C17.4378 12.2154 14.926 9.95475 14.6748 10.2059C14.4237 10.4571 14.926 11.7633 14.6748 11.7633C14.4237 11.7633 11.5602 9.20121 11.309 9.45239C11.0578 9.70357 12.9668 11.7633 12.5147 12.2154C12.0626 12.6675 9.29955 10.859 9.29955 10.859Z" fill="#F9D9BC" stroke="black" stroke-width="0.5"/>
<path d="M15.0264 17.5909C15.1997 17.3 15.6115 16.902 16.1316 17.499" stroke="black" stroke-width="0.5" stroke-linecap="round"/>
<path d="M17.7787 18.688H13.3579C13.5589 19.6927 14.0612 20.396 15.5931 20.396C16.8242 20.396 17.628 19.7932 17.7787 18.688Z" fill="#D88484"/>
<path d="M17.6284 19.1401H13.5091L13.3081 18.6377H17.8294L17.6284 19.1401Z" fill="white"/>
<path d="M18.2417 13.7102C18.4129 13.6549 18.8921 13.4136 19.3364 13.8882" stroke="black" stroke-width="0.5" stroke-linecap="round"/>
<path d="M11.6816 14.0268C11.8003 13.8916 12.0883 13.4389 12.713 13.619" stroke="black" stroke-width="0.5" stroke-linecap="round"/>
<path d="M12.6573 15.7439C12.6525 15.2199 13.6133 14.4782 14.1724 15.5113" stroke="black" stroke-width="0.5" stroke-linecap="round"/>
<path d="M17.0445 15.523C17.1615 15.0331 18.2297 14.5641 18.5117 15.6574" stroke="black" stroke-width="0.5" stroke-linecap="round"/>
<ellipse cx="11.3592" cy="17.2894" rx="1.05496" ry="0.602837" fill="#EAB98D"/>
<ellipse cx="20.201" cy="17.1888" rx="1.05496" ry="0.602837" fill="#EAB98D"/>
<path d="M17.7787 18.5874H13.3579C13.5589 19.6512 14.0612 20.3959 15.5931 20.3959C16.8242 20.3959 17.628 19.7576 17.7787 18.5874Z" stroke="black" stroke-width="0.5" stroke-linejoin="round"/>
<path d="M10.0531 11.5625L9.39998 11.1606C9.29951 11.1606 9.1756 11.9521 8.79714 14.8279C8.34197 18.2867 9.41446 21.1056 13.6198 21.7103C14.9027 21.8947 16.0479 21.66 16.4331 21.5596C15.561 21.6329 13.5493 21.4386 12.7156 21.1074C10.1001 20.0686 9.24927 18.7561 9.24927 16.1843C9.24927 14.6973 9.83536 12.2993 10.0531 11.5625Z" fill="#D1AC8B"/>
<ellipse opacity="0.35" cx="14.61" cy="32.4198" rx="2.61" ry="1.16" fill="#424941"/>
</svg>
