<svg width="28" height="35" viewBox="0 0 28 35" fill="none" xmlns="http://www.w3.org/2000/svg">
<circle cx="13.815" cy="14.815" r="13.5094" fill="white" stroke="#424941" stroke-width="0.611111"/>
<g opacity="0.6">
<path d="M3.17561 15.4261C2.73353 18.9226 4.66596 21.1363 5.58696 21.8062L20.8588 22.208C21.6291 22.208 23.3505 21.8263 24.0739 20.2991C24.7973 18.7719 24.3754 15.8448 24.0739 14.5721L20.8588 9.64896C20.8588 9.64896 15.8352 3.97225 14.4286 4.22343C13.0219 4.47461 11.1632 6.73525 9.40492 8.04139C7.64665 9.34754 3.61769 11.9297 3.17561 15.4261Z" fill="#9A9A9A"/>
<path d="M2.92421 16.4755C2.76352 18.5945 4.46409 20.8561 5.33447 21.7221C8.84656 23.8776 19.3262 24.3135 23.0599 21.7221C24.014 21.0599 25.1689 16.934 24.0642 14.9474C23.1804 13.3582 21.8883 11.4158 21.4029 10.6687C19.7626 9.87069 15.9798 8.44785 12.967 8.93684C9.95414 9.42584 6.38896 10.9404 4.98297 11.6365C4.36367 12.3666 3.08489 14.3566 2.92421 16.4755Z" fill="#313131"/>
<path d="M14.0593 7.85783C12.1003 7.77279 9.09385 8.7436 7.9375 9.29278C8.6177 8.49558 10.6005 6.82678 12.4779 6.74175C14.8246 6.63546 17.0182 7.11378 18.3956 7.91097C19.773 8.70817 21.0994 10.1431 21.0994 10.1431C21.0994 10.1431 16.5081 7.96412 14.0593 7.85783Z" fill="#696969"/>
<path d="M3.17952 15.3256C2.73744 18.822 4.66987 21.0358 5.59087 21.7056C8.34378 23.8485 21.8348 24.9338 24.0779 20.1985C24.8013 18.6713 24.3793 15.7442 24.0779 14.4715L20.8627 9.54837C20.8627 9.54837 15.8391 3.87166 14.4325 4.12284C13.0258 4.37402 11.1671 6.63466 9.40883 7.94081C7.65056 9.24695 3.6216 11.8291 3.17952 15.3256Z" stroke="black" stroke-width="0.5"/>
<path d="M13.9346 7.7502C9.90739 7.54976 5.73752 10.7541 4.63232 12.211C6.29012 10.9551 10.0701 9.43383 13.9346 9.35366C17.7992 9.27349 20.7196 10.2449 21.6518 10.746C20.7874 9.82738 17.9619 7.95063 13.9346 7.7502Z" fill="#FAF6B3" stroke="black" stroke-width="0.5"/>
<path d="M9.60584 21.856C8.6948 21.5208 7.59638 20.8512 7.59638 20.8512V22.4086C6.57491 21.3536 4.60229 18.671 4.88362 16.3802C5.71684 9.59535 12.4813 7.92067 18.4474 9.749C20.4067 10.3494 25.1594 15.0861 24.526 15.8778C24.3404 16.1099 23.766 16.0069 23.2654 15.9172C22.8992 15.8515 22.5725 15.7929 22.4663 15.8778C22.2152 16.0788 23.5615 18.7513 24.526 19.1934C25.0926 19.4531 24.439 19.5117 23.7115 19.577C23.2004 19.6228 22.6529 19.6719 22.4663 19.7963C22.0142 20.0977 22.5037 21.1348 23.2199 22.2076C23.2199 22.2076 21.0573 21.4911 18.9736 21.4541C20.1357 20.7174 21.0566 19.7173 21.5119 18.4901C22.4362 15.9984 20.8588 12.3111 19.4019 11.2059C18.4647 10.4949 18.7125 11.2391 18.9417 11.9274C19.0688 12.3091 19.1901 12.6736 19.1005 12.7632C18.9896 12.8741 18.487 12.5639 17.9256 12.2174C17.2154 11.7791 16.4112 11.2828 16.1868 11.5073C15.9538 11.7403 16.3119 12.2774 16.5855 12.6876C16.7836 12.9848 16.9374 13.2153 16.7896 13.2153C16.6357 13.2153 16.068 12.7823 15.4572 12.3163C14.6723 11.7176 13.8162 11.0646 13.675 11.2059C13.5443 11.3365 13.6176 11.7528 13.6826 12.1221C13.7426 12.4626 13.7955 12.7632 13.675 12.7632C13.5747 12.7632 13.0582 12.3549 12.4577 11.8803C11.5539 11.166 10.4601 10.3014 10.3091 10.4523C10.2019 10.5596 10.4886 10.9967 10.8171 11.4975C11.2578 12.1695 11.7739 12.9563 11.5148 13.2153C11.0627 13.6674 8.29969 11.8589 8.29969 11.8589C8.13224 12.3111 7.74709 13.9789 7.54615 17.0333C7.40225 19.2205 8.28815 20.9065 9.60584 21.856Z" fill="#9C7857"/>
<path d="M16.4718 12.5157L16.4602 12.512C16.4579 12.5052 16.4552 12.4963 16.452 12.4852M7.59638 20.8512C7.59638 20.8512 8.6948 21.5208 9.60584 21.856C8.28815 20.9065 7.40225 19.2205 7.54615 17.0333C7.74709 13.9789 8.13224 12.3111 8.29969 11.8589C8.29969 11.8589 11.0627 13.6674 11.5148 13.2153C11.7739 12.9563 11.2578 12.1695 10.8171 11.4975C10.4886 10.9967 10.2019 10.5596 10.3091 10.4523C10.4601 10.3014 11.5539 11.166 12.4577 11.8803C13.0582 12.3549 13.5747 12.7632 13.675 12.7632C13.7955 12.7632 13.7426 12.4626 13.6826 12.1221C13.6176 11.7528 13.5443 11.3365 13.675 11.2059C13.8162 11.0646 14.6723 11.7176 15.4572 12.3163C16.068 12.7823 16.6357 13.2153 16.7896 13.2153C16.9374 13.2153 16.7836 12.9848 16.5855 12.6876C16.3119 12.2774 15.9538 11.7403 16.1868 11.5073C16.4112 11.2828 17.2154 11.7791 17.9256 12.2174C18.487 12.5639 18.9896 12.8741 19.1005 12.7632C19.1901 12.6736 19.0688 12.3091 18.9417 11.9274C18.7125 11.2391 18.4647 10.4949 19.4019 11.2059C20.8588 12.3111 22.4362 15.9984 21.5119 18.4901C21.0566 19.7173 20.1357 20.7174 18.9736 21.4541C21.0573 21.4911 23.2199 22.2076 23.2199 22.2076C22.5037 21.1348 22.0142 20.0977 22.4663 19.7963C22.6529 19.6719 23.2004 19.6228 23.7115 19.577C24.439 19.5117 25.0926 19.4531 24.526 19.1934C23.5615 18.7513 22.2152 16.0788 22.4663 15.8778C22.5725 15.7929 22.8992 15.8515 23.2654 15.9172C23.766 16.0069 24.3404 16.1099 24.526 15.8778C25.1594 15.0861 20.4067 10.3494 18.4474 9.749C12.4813 7.92067 5.71684 9.59535 4.88362 16.3802C4.60229 18.671 6.57491 21.3536 7.59638 22.4086V20.8512Z" stroke="black" stroke-width="0.5"/>
<path d="M8.29955 11.859C8.1321 12.3111 7.74695 13.979 7.54601 17.0334C7.02141 25.0072 19.3788 24.2399 21.5117 18.4902C22.4361 15.9985 20.8586 12.3111 19.4018 11.2059C17.9449 10.1007 19.3516 12.5121 19.1004 12.7633C18.8492 13.0144 16.5886 11.1055 16.1867 11.5074C15.7848 11.9092 17.1412 13.2154 16.7895 13.2154C16.4378 13.2154 13.926 10.9548 13.6748 11.2059C13.4237 11.4571 13.926 12.7633 13.6748 12.7633C13.4237 12.7633 10.5602 10.2012 10.309 10.4524C10.0578 10.7036 11.9668 12.7633 11.5147 13.2154C11.0626 13.6675 8.29955 11.859 8.29955 11.859Z" fill="#F9D9BC" stroke="black" stroke-width="0.5"/>
<circle cx="11.9165" cy="16.2797" r="0.904254" fill="black"/>
<ellipse cx="17.3422" cy="16.2797" rx="0.904255" ry="0.904254" fill="black"/>
<circle cx="11.6154" cy="15.9787" r="0.301418" fill="white"/>
<circle cx="17.0407" cy="15.9787" r="0.301418" fill="white"/>
<path d="M11.5146 19.3218C12.4029 20.4964 15.8059 21.6254 17.744 18.9927" stroke="black" stroke-width="0.5" stroke-linecap="round"/>
<path d="M14.0264 18.5909C14.1997 18.3 14.6115 17.902 15.1316 18.499" stroke="black" stroke-width="0.5" stroke-linecap="round"/>
<path d="M17.2417 14.7102C17.4129 14.6549 17.8921 14.4136 18.3364 14.8882" stroke="black" stroke-width="0.5" stroke-linecap="round"/>
<path d="M10.6816 15.0268C10.8003 14.8916 11.0883 14.4389 11.713 14.619" stroke="black" stroke-width="0.5" stroke-linecap="round"/>
<ellipse cx="10.3592" cy="18.2894" rx="1.05496" ry="0.602836" fill="#EAB98D"/>
<ellipse cx="19.201" cy="18.1888" rx="1.05496" ry="0.602837" fill="#EAB98D"/>
<path d="M9.05305 12.5625L8.39998 12.1606C8.29951 12.1606 8.1756 12.9521 7.79714 15.8279C7.34197 19.2867 8.41446 22.1056 12.6198 22.7103C13.9027 22.8947 15.0479 22.66 15.4331 22.5596C14.561 22.6329 12.5493 22.4386 11.7156 22.1074C9.10007 21.0686 8.24927 19.7561 8.24927 17.1843C8.24927 15.6973 8.83536 13.2993 9.05305 12.5625Z" fill="#D1AC8B"/>
</g>
<ellipse opacity="0.35" cx="13.75" cy="33.4737" rx="2.75" ry="1.22222" fill="#424941"/>
<g style="mix-blend-mode:saturation">
<path d="M27.63 14.9732C27.63 22.603 21.4448 28.7882 13.815 28.7882C6.18519 28.7882 0 22.603 0 14.9732C0 7.34339 6.18519 1.1582 13.815 1.1582C21.4448 1.1582 27.63 7.34339 27.63 14.9732Z" fill="#D9D9D9"/>
</g>
</svg>
