<svg width="22" height="21" viewBox="0 0 22 21" fill="none" xmlns="http://www.w3.org/2000/svg">
<g id="Kindo&#39;s Avatars">
<circle id="Ellipse 8" cx="11.1293" cy="10.5112" r="10.007" fill="white" stroke="#424941" stroke-width="0.452675"/>
<g id="Group 14" opacity="0.6">
<path id="Vector 39" d="M3.24867 10.964C2.9212 13.5539 4.35263 15.1937 5.03485 15.6899L16.3473 15.9876C16.9179 15.9876 18.1931 15.7048 18.7289 14.5735C19.2648 13.4423 18.9522 11.2741 18.7289 10.3314L16.3473 6.68457C16.3473 6.68457 12.6261 2.47961 11.5842 2.66567C10.5422 2.85172 9.16539 4.52627 7.86297 5.49379C6.56054 6.4613 3.57613 8.374 3.24867 10.964Z" fill="#9A9A9A"/>
<path id="Vector 40" d="M3.06207 11.7413C2.94305 13.3109 4.20273 14.9861 4.84745 15.6276C7.449 17.2242 15.2117 17.5472 17.9774 15.6276C18.6841 15.1371 19.5396 12.0808 18.7213 10.6093C18.0667 9.4321 17.1095 7.99328 16.75 7.43989C15.5349 6.84877 12.7329 5.79481 10.5012 6.15703C8.26943 6.51925 5.62856 7.64113 4.58709 8.15679C4.12834 8.6976 3.1811 10.1716 3.06207 11.7413Z" fill="#313131"/>
<g id="Group 11">
<path id="Vector 35" d="M11.3106 5.35763C9.85947 5.29464 7.63243 6.01376 6.77588 6.42056C7.27973 5.83004 8.74847 4.5939 10.1391 4.53091C11.8774 4.45217 13.5023 4.80648 14.5226 5.397C15.5429 5.98751 16.5255 7.05044 16.5255 7.05044C16.5255 7.05044 13.1244 5.43637 11.3106 5.35763Z" fill="#696969"/>
<path id="Vector 33" d="M3.25159 10.8893C2.92413 13.4792 4.35556 15.119 5.03778 15.6152C7.07697 17.2026 17.0703 18.0065 18.7318 14.4988C19.2677 13.3676 18.9551 11.1994 18.7318 10.2567L16.3503 6.60987C16.3503 6.60987 12.6291 2.4049 11.5871 2.59096C10.5452 2.77702 9.16832 4.45157 7.8659 5.41908C6.56347 6.38659 3.57906 8.2993 3.25159 10.8893Z" stroke="black" stroke-width="0.37037"/>
</g>
<path id="Vector 41" d="M11.2182 5.27814C8.23509 5.12967 5.1463 7.50327 4.32764 8.58243C5.55564 7.65212 8.35562 6.52528 11.2182 6.46589C14.0808 6.4065 16.2441 7.12611 16.9347 7.49728C16.2943 6.81679 14.2014 5.42661 11.2182 5.27814Z" fill="#FAF6B3" stroke="black" stroke-width="0.37037"/>
<g id="Subtract">
<path d="M8.01172 15.7269C7.33688 15.4786 6.52323 14.9826 6.52323 14.9826V16.1362C5.76659 15.3547 4.30539 13.3676 4.51378 11.6707C5.13098 6.64492 10.1417 5.40442 14.5611 6.75873C16.0123 7.20348 19.5329 10.7121 19.0637 11.2986C18.9262 11.4705 18.5007 11.3942 18.1299 11.3278C17.8587 11.2791 17.6166 11.2357 17.538 11.2986C17.352 11.4475 18.3492 13.4271 19.0637 13.7546C19.4834 13.947 18.9992 13.9904 18.4603 14.0387C18.0818 14.0727 17.6762 14.109 17.538 14.2012C17.2031 14.4244 17.5657 15.1926 18.0962 15.9873C18.0962 15.9873 16.4943 15.4566 14.9508 15.4292C15.8116 14.8835 16.4938 14.1426 16.831 13.2336C17.5157 11.3879 16.3472 8.65655 15.2681 7.83789C14.5739 7.31124 14.7574 7.86255 14.9272 8.3724C15.0213 8.65512 15.1112 8.92509 15.0448 8.99146C14.9627 9.07361 14.5903 8.84383 14.1745 8.58718C13.6485 8.26254 13.0528 7.8949 12.8865 8.06116C12.7139 8.23378 12.9792 8.63163 13.1818 8.93546C13.3286 9.15559 13.4425 9.32637 13.3331 9.32637C13.219 9.32637 12.7985 9.0056 12.346 8.66043C11.7647 8.21697 11.1305 7.73326 11.0259 7.83789C10.9291 7.93469 10.9834 8.24301 11.0315 8.51655C11.076 8.76879 11.1152 8.99146 11.0259 8.99146C10.9516 8.99146 10.569 8.68904 10.1242 8.33747C9.45475 7.80835 8.64448 7.16792 8.53269 7.2797C8.45323 7.35916 8.66559 7.68293 8.90894 8.05394C9.23542 8.5517 9.61767 9.13448 9.42578 9.32637C9.09087 9.66128 7.0442 8.32164 7.0442 8.32164C6.92016 8.65655 6.63487 9.89199 6.48602 12.1545C6.37943 13.7746 7.03565 15.0236 8.01172 15.7269Z" fill="#9C7857"/>
<path d="M13.0976 8.80811L13.089 8.8054C13.0873 8.80039 13.0853 8.79378 13.083 8.78556M6.52323 14.9826C6.52323 14.9826 7.33688 15.4786 8.01172 15.7269C7.03565 15.0236 6.37943 13.7746 6.48602 12.1545C6.63487 9.89199 6.92016 8.65655 7.0442 8.32164C7.0442 8.32164 9.09087 9.66128 9.42578 9.32637C9.61767 9.13448 9.23542 8.5517 8.90894 8.05394C8.66559 7.68293 8.45323 7.35916 8.53269 7.2797C8.64448 7.16792 9.45475 7.80835 10.1242 8.33747C10.569 8.68904 10.9516 8.99146 11.0259 8.99146C11.1152 8.99146 11.076 8.76879 11.0315 8.51655C10.9834 8.24301 10.9291 7.93469 11.0259 7.83789C11.1305 7.73326 11.7647 8.21697 12.346 8.66043C12.7985 9.0056 13.219 9.32637 13.3331 9.32637C13.4425 9.32637 13.3286 9.15559 13.1818 8.93546C12.9792 8.63163 12.7139 8.23378 12.8865 8.06116C13.0528 7.8949 13.6485 8.26254 14.1745 8.58718C14.5903 8.84383 14.9627 9.07361 15.0448 8.99146C15.1112 8.92509 15.0213 8.65512 14.9272 8.3724C14.7574 7.86255 14.5739 7.31124 15.2681 7.83789C16.3472 8.65655 17.5157 11.3879 16.831 13.2336C16.4938 14.1426 15.8116 14.8835 14.9508 15.4292C16.4943 15.4566 18.0962 15.9873 18.0962 15.9873C17.5657 15.1926 17.2031 14.4244 17.538 14.2012C17.6762 14.109 18.0818 14.0727 18.4603 14.0387C18.9992 13.9904 19.4834 13.947 19.0637 13.7546C18.3492 13.4271 17.352 11.4475 17.538 11.2986C17.6166 11.2357 17.8587 11.2791 18.1299 11.3278C18.5007 11.3942 18.9262 11.4705 19.0637 11.2986C19.5329 10.7121 16.0123 7.20348 14.5611 6.75873C10.1417 5.40442 5.13098 6.64492 4.51378 11.6707C4.30539 13.3676 5.76659 15.3547 6.52323 16.1362V14.9826Z" stroke="black" stroke-width="0.37037"/>
</g>
<g id="Group 12">
<path id="Vector 11" d="M7.04383 8.32138C6.91979 8.65629 6.6345 9.89173 6.48565 12.1542C6.09706 18.0608 15.2507 17.4924 16.8306 13.2334C17.5153 11.3877 16.3469 8.65629 15.2677 7.83762C14.1886 7.01895 15.2305 8.80513 15.0444 8.9912C14.8584 9.17726 13.1838 7.7632 12.8861 8.06089C12.5884 8.35859 13.5932 9.32611 13.3327 9.32611C13.0722 9.32611 11.2116 7.65156 11.0255 7.83762C10.8395 8.02369 11.2116 8.9912 11.0255 8.9912C10.8395 8.9912 8.71838 7.09338 8.53232 7.27944C8.34626 7.4655 9.76032 8.9912 9.42541 9.32611C9.0905 9.66102 7.04383 8.32138 7.04383 8.32138Z" fill="#F9D9BC" stroke="black" stroke-width="0.37037"/>
<circle id="Ellipse 1" cx="9.72304" cy="11.5961" r="0.669818" fill="black"/>
<ellipse id="Ellipse 2" cx="13.7426" cy="11.5961" rx="0.669819" ry="0.669818" fill="black"/>
<circle id="Ellipse 3" cx="9.50013" cy="11.3732" r="0.223273" fill="white"/>
<circle id="Ellipse 4" cx="13.5192" cy="11.3732" r="0.223273" fill="white"/>
<path id="Vector 16" d="M9.42578 13.8497C10.0837 14.7198 12.6045 15.5561 14.0401 13.606" stroke="black" stroke-width="0.37037" stroke-linecap="round"/>
<path id="Vector 17" d="M11.2861 13.308C11.4146 13.0925 11.7195 12.7977 12.1048 13.2399" stroke="black" stroke-width="0.37037" stroke-linecap="round"/>
<path id="Vector 19" d="M13.6678 10.4334C13.7946 10.3924 14.1496 10.2137 14.4786 10.5653" stroke="black" stroke-width="0.37037" stroke-linecap="round"/>
<path id="Vector 20" d="M8.80866 10.6683C8.89655 10.5682 9.10989 10.2328 9.5726 10.3663" stroke="black" stroke-width="0.37037" stroke-linecap="round"/>
<ellipse id="Ellipse 5" cx="8.56954" cy="13.0847" rx="0.781455" ry="0.446545" fill="#EAB98D"/>
<ellipse id="Ellipse 6" cx="15.1193" cy="13.0105" rx="0.781455" ry="0.446546" fill="#EAB98D"/>
</g>
<path id="Vector 42" d="M7.60222 8.84262L7.11846 8.54492C7.04403 8.54492 6.95225 9.13119 6.67191 11.2614C6.33475 13.8235 7.12918 15.9116 10.2443 16.3595C11.1945 16.4961 12.0429 16.3223 12.3282 16.2478C11.6822 16.3022 10.192 16.1582 9.57446 15.9129C7.63704 15.1434 7.00682 14.1712 7.00682 12.2661C7.00682 11.1647 7.44096 9.3884 7.60222 8.84262Z" fill="#D1AC8B"/>
</g>
</g>
</svg>
