<svg width="28" height="28" viewBox="0 0 28 28" fill="none" xmlns="http://www.w3.org/2000/svg">
<g id="Kindo&#39;s Avatars">
<circle id="Ellipse 8" cx="13.815" cy="13.815" r="13.315" fill="#E5E3DF" stroke="#424941"/>
<g id="Group 14" opacity="0.6">
<path id="Vector 39" d="M3.17586 14.4259C2.73378 17.9223 4.66621 20.1361 5.58721 20.8059L20.8591 21.2078C21.6293 21.2078 23.3508 20.826 24.0742 19.2988C24.7976 17.7716 24.3756 14.8445 24.0742 13.5718L20.8591 8.64867C20.8591 8.64867 15.8354 2.97197 14.4288 3.22315C13.0222 3.47433 11.1634 5.73497 9.40517 7.04111C7.64689 8.34725 3.61794 10.9294 3.17586 14.4259Z" fill="#9A9A9A"/>
<path id="Vector 40" d="M2.92469 15.4754C2.76401 17.5944 4.46458 19.856 5.33496 20.722C8.84705 22.8775 19.3267 23.3134 23.0604 20.722C24.0145 20.0598 25.1694 15.9339 24.0647 13.9473C23.1809 12.3581 21.8888 10.4157 21.4034 9.66859C19.7631 8.87058 15.9803 7.44773 12.9675 7.93673C9.95462 8.42573 6.38945 9.94026 4.98346 10.6364C4.36416 11.3665 3.08538 13.3564 2.92469 15.4754Z" fill="#313131"/>
<g id="Group 11">
<path id="Vector 35" d="M14.0593 6.8575C12.1003 6.77246 9.09384 7.74327 7.9375 8.29245C8.6177 7.49526 10.6005 5.82646 12.4779 5.74142C14.8246 5.63513 17.0182 6.11345 18.3956 6.91064C19.773 7.70784 21.0994 9.1428 21.0994 9.1428C21.0994 9.1428 16.5081 6.96379 14.0593 6.8575Z" fill="#696969"/>
<path id="Vector 33" d="M3.17977 14.3254C2.73769 17.8218 4.67011 20.0356 5.59111 20.7054C8.34403 22.8484 21.835 23.9337 24.0781 19.1983C24.8015 17.6711 24.3795 14.744 24.0781 13.4714L20.863 8.54822C20.863 8.54822 15.8393 2.87151 14.4327 3.12269C13.0261 3.37387 11.1673 5.63451 9.40907 6.94065C7.6508 8.2468 3.62185 10.8289 3.17977 14.3254Z" stroke="black" stroke-width="0.5"/>
</g>
<path id="Vector 41" d="M13.9349 6.74994C9.90763 6.54951 5.73777 9.75388 4.63257 11.2107C6.29037 9.95482 10.0703 8.43358 13.9349 8.35341C17.7994 8.27324 20.7198 9.2447 21.6521 9.74578C20.7876 8.82713 17.9621 6.95038 13.9349 6.74994Z" fill="#FAF6B3" stroke="black" stroke-width="0.5"/>
<g id="Subtract">
<path d="M9.60608 20.8561C8.69505 20.5209 7.59662 19.8514 7.59662 19.8514V21.4087C6.57515 20.3537 4.60254 17.6711 4.88386 15.3803C5.71709 8.59549 12.4816 6.92082 18.4477 8.74914C20.4069 9.34955 25.1597 14.0862 24.5263 14.878C24.3406 15.1101 23.7662 15.0071 23.2657 14.9173C22.8994 14.8517 22.5727 14.7931 22.4666 14.878C22.2154 15.0789 23.5617 17.7515 24.5263 18.1936C25.0928 18.4532 24.4392 18.5119 23.7117 18.5771C23.2007 18.6229 22.6531 18.672 22.4666 18.7964C22.0145 19.0978 22.5039 20.1349 23.2201 21.2078C23.2201 21.2078 21.0575 20.4913 18.9739 20.4543C20.1359 19.7176 21.0569 18.7174 21.5121 17.4903C22.4364 14.9985 20.859 11.3112 19.4022 10.206C18.465 9.49503 18.7128 10.2393 18.9419 10.9276C19.069 11.3093 19.1904 11.6737 19.1008 11.7633C18.9898 11.8742 18.4872 11.564 17.9258 11.2175C17.2157 10.7793 16.4115 10.283 16.187 10.5074C15.954 10.7405 16.3122 11.2776 16.5857 11.6877C16.7839 11.9849 16.9376 12.2155 16.7899 12.2155C16.636 12.2155 16.0683 11.7824 15.4574 11.3164C14.6726 10.7178 13.8165 10.0647 13.6752 10.206C13.5445 10.3367 13.6178 10.7529 13.6828 11.1222C13.7428 11.4627 13.7957 11.7633 13.6752 11.7633C13.575 11.7633 13.0584 11.355 12.4579 10.8804C11.5542 10.1661 10.4603 9.30154 10.3094 9.45245C10.2021 9.55972 10.4888 9.99681 10.8173 10.4977C11.2581 11.1696 11.7741 11.9564 11.5151 12.2155C11.0629 12.6676 8.29993 10.8591 8.29993 10.8591C8.13248 11.3112 7.74733 12.979 7.54639 16.0334C7.40249 18.2206 8.28839 19.9067 9.60608 20.8561Z" fill="#9C7857"/>
<path d="M16.472 11.5158L16.4604 11.5121C16.4582 11.5054 16.4554 11.4964 16.4523 11.4854M7.59662 19.8514C7.59662 19.8514 8.69505 20.5209 9.60608 20.8561C8.28839 19.9067 7.40249 18.2206 7.54639 16.0334C7.74733 12.979 8.13248 11.3112 8.29993 10.8591C8.29993 10.8591 11.0629 12.6676 11.5151 12.2155C11.7741 11.9564 11.2581 11.1696 10.8173 10.4977C10.4888 9.99681 10.2021 9.55972 10.3094 9.45245C10.4603 9.30154 11.5542 10.1661 12.4579 10.8804C13.0584 11.355 13.575 11.7633 13.6752 11.7633C13.7957 11.7633 13.7428 11.4627 13.6828 11.1222C13.6178 10.7529 13.5445 10.3367 13.6752 10.206C13.8165 10.0647 14.6726 10.7178 15.4574 11.3164C16.0683 11.7824 16.636 12.2155 16.7899 12.2155C16.9376 12.2155 16.7839 11.9849 16.5857 11.6877C16.3122 11.2776 15.954 10.7405 16.187 10.5074C16.4115 10.283 17.2157 10.7793 17.9258 11.2175C18.4872 11.564 18.9898 11.8742 19.1008 11.7633C19.1904 11.6737 19.069 11.3093 18.9419 10.9276C18.7128 10.2393 18.465 9.49503 19.4022 10.206C20.859 11.3112 22.4364 14.9985 21.5121 17.4903C21.0569 18.7174 20.1359 19.7176 18.9739 20.4543C21.0575 20.4913 23.2201 21.2078 23.2201 21.2078C22.5039 20.1349 22.0145 19.0978 22.4666 18.7964C22.6531 18.672 23.2007 18.6229 23.7117 18.5771C24.4392 18.5119 25.0928 18.4532 24.5263 18.1936C23.5617 17.7515 22.2154 15.0789 22.4666 14.878C22.5727 14.7931 22.8994 14.8517 23.2657 14.9173C23.7662 15.0071 24.3406 15.1101 24.5263 14.878C25.1597 14.0862 20.4069 9.34954 18.4477 8.74914C12.4816 6.92082 5.71709 8.59549 4.88386 15.3803C4.60254 17.6711 6.57515 20.3537 7.59662 21.4087V19.8514Z" stroke="black" stroke-width="0.5"/>
</g>
<g id="Group 12">
<path id="Vector 11" d="M8.2998 10.8591C8.13234 11.3113 7.7472 12.9791 7.54625 16.0335C7.02166 24.0073 19.379 23.24 21.512 17.4903C22.4363 14.9986 20.8589 11.3113 19.402 10.2061C17.9452 9.10087 19.3518 11.5122 19.1006 11.7634C18.8494 12.0146 16.5888 10.1056 16.1869 10.5075C15.785 10.9094 17.1414 12.2155 16.7897 12.2155C16.4381 12.2155 13.9263 9.95489 13.6751 10.2061C13.4239 10.4573 13.9263 11.7634 13.6751 11.7634C13.4239 11.7634 10.5604 9.20135 10.3093 9.45253C10.0581 9.70371 11.9671 11.7634 11.5149 12.2155C11.0628 12.6677 8.2998 10.8591 8.2998 10.8591Z" fill="#F9D9BC" stroke="black" stroke-width="0.5"/>
<ellipse id="Ellipse 1" cx="11.917" cy="15.2801" rx="0.904254" ry="0.904254" fill="black"/>
<circle id="Ellipse 2" cx="17.3425" cy="15.2801" r="0.904254" fill="black"/>
<ellipse id="Ellipse 3" cx="11.6154" cy="14.9786" rx="0.301418" ry="0.301418" fill="white"/>
<circle id="Ellipse 4" cx="17.0412" cy="14.9786" r="0.301418" fill="white"/>
<path id="Vector 16" d="M11.5151 18.3219C12.4033 19.4965 15.8064 20.6256 17.7444 17.9928" stroke="black" stroke-width="0.5" stroke-linecap="round"/>
<path id="Vector 17" d="M14.0269 17.591C14.2002 17.3001 14.612 16.9021 15.1321 17.4991" stroke="black" stroke-width="0.5" stroke-linecap="round"/>
<path id="Vector 19" d="M17.242 13.7105C17.4131 13.6552 17.8924 13.4139 18.3366 13.8885" stroke="black" stroke-width="0.5" stroke-linecap="round"/>
<path id="Vector 20" d="M10.6821 14.0271C10.8008 13.8919 11.0888 13.4392 11.7134 13.6194" stroke="black" stroke-width="0.5" stroke-linecap="round"/>
<ellipse id="Ellipse 5" cx="10.3597" cy="17.2895" rx="1.05496" ry="0.602836" fill="#EAB98D"/>
<ellipse id="Ellipse 6" cx="19.2012" cy="17.1891" rx="1.05496" ry="0.602836" fill="#EAB98D"/>
</g>
<path id="Vector 42" d="M9.05354 11.5625L8.40047 11.1606C8.3 11.1606 8.17609 11.952 7.79763 14.8278C7.34246 18.2866 8.41495 21.1055 12.6203 21.7102C13.9032 21.8946 15.0484 21.66 15.4336 21.5595C14.5615 21.6328 12.5498 21.4385 11.7161 21.1074C9.10056 20.0685 8.24976 18.756 8.24976 16.1842C8.24976 14.6972 8.83585 12.2993 9.05354 11.5625Z" fill="#D1AC8B"/>
</g>
</g>
</svg>
