<svg xmlns="http://www.w3.org/2000/svg" width="11" height="11" viewBox="0 0 11 11" fill="none">
  <path d="M6.43746 4.05103C6.68469 4.05103 6.92636 3.97772 7.13192 3.84036C7.33748 3.70301 7.4977 3.50779 7.59231 3.27938C7.68692 3.05097 7.71167 2.79964 7.66344 2.55716C7.61521 2.31469 7.49616 2.09196 7.32134 1.91714C7.14653 1.74233 6.9238 1.62328 6.68132 1.57504C6.43885 1.52681 6.18751 1.55157 5.9591 1.64618C5.7307 1.74079 5.53547 1.901 5.39812 2.10656C5.26077 2.31212 5.18746 2.5538 5.18746 2.80103C5.18746 3.13255 5.31916 3.45049 5.55358 3.68491C5.788 3.91933 6.10594 4.05103 6.43746 4.05103ZM6.43746 2.17603C6.56107 2.17603 6.68191 2.21268 6.78469 2.28136C6.88747 2.35003 6.96758 2.44764 7.01488 2.56185C7.06219 2.67605 7.07457 2.80172 7.05045 2.92296C7.02633 3.0442 6.96681 3.15556 6.8794 3.24297C6.79199 3.33038 6.68063 3.3899 6.55939 3.41402C6.43815 3.43813 6.31249 3.42576 6.19828 3.37845C6.08408 3.33115 5.98647 3.25104 5.91779 3.14826C5.84911 3.04548 5.81246 2.92464 5.81246 2.80103C5.81246 2.63527 5.87831 2.47629 5.99552 2.35908C6.11273 2.24187 6.2717 2.17603 6.43746 2.17603ZM8.93746 6.55103C8.93746 6.63391 8.90453 6.71339 8.84593 6.772C8.78732 6.8306 8.70784 6.86353 8.62496 6.86353C7.24566 6.86353 6.5566 6.16782 6.00308 5.60884C5.89605 5.50064 5.79371 5.3979 5.69058 5.30259L5.16597 6.50884L6.6191 7.54673C6.65958 7.57564 6.69257 7.6138 6.71533 7.65803C6.73809 7.70226 6.74996 7.75128 6.74996 7.80103V9.98853C6.74996 10.0714 6.71703 10.1509 6.65843 10.2095C6.59982 10.2681 6.52034 10.301 6.43746 10.301C6.35458 10.301 6.27509 10.2681 6.21649 10.2095C6.15788 10.1509 6.12496 10.0714 6.12496 9.98853V7.96196L4.91129 7.09478L3.59918 10.1131C3.57489 10.169 3.53482 10.2165 3.48388 10.2499C3.43294 10.2833 3.37336 10.3011 3.31246 10.301C3.26955 10.3011 3.22709 10.2922 3.18785 10.2749C3.11188 10.2418 3.05213 10.18 3.02174 10.1029C2.99134 10.0259 2.99278 9.93991 3.02574 9.86392L5.13824 5.00571C4.77457 4.94126 4.32105 5.05259 3.78277 5.34087C3.35347 5.57767 2.9528 5.863 2.58863 6.19126C2.52785 6.24571 2.44817 6.27422 2.36664 6.2707C2.28511 6.26718 2.20819 6.2319 2.15233 6.17242C2.09647 6.11293 2.06609 6.03395 2.06769 5.95236C2.06929 5.87077 2.10274 5.79304 2.1609 5.73579C2.25855 5.64399 4.57066 3.50024 6.01715 4.7561C6.16676 4.88579 6.30933 5.02954 6.44683 5.169C6.99176 5.719 7.50621 6.23853 8.62496 6.23853C8.70784 6.23853 8.78732 6.27145 8.84593 6.33006C8.90453 6.38866 8.93746 6.46815 8.93746 6.55103Z" fill="#424941"/>
</svg>